<?xml version="1.0" encoding="UTF-8"?>
<svg version="1.1" xmlns="http://www.w3.org/2000/svg" width="100" height="100">
<path d="M0 0 C1.25554688 -0.00128906 2.51109375 -0.00257812 3.8046875 -0.00390625 C4.46178711 -0.00181152 5.11888672 0.0002832 5.79589844 0.00244141 C7.80411335 0.00779016 9.81210459 0.00249559 11.8203125 -0.00390625 C13.07585938 -0.00261719 14.33140625 -0.00132813 15.625 0 C16.78644531 0.00112793 17.94789062 0.00225586 19.14453125 0.00341797 C21.8125 0.1328125 21.8125 0.1328125 22.8125 1.1328125 C22.91159302 3.46441305 22.94220504 5.79911192 22.9375 8.1328125 C22.94136719 10.0509375 22.94136719 10.0509375 22.9453125 12.0078125 C22.8125 15.1328125 22.8125 15.1328125 21.8125 16.1328125 C19.79285801 16.20525303 17.77082876 16.21658438 15.75 16.1953125 C14.09291016 16.18177734 14.09291016 16.18177734 12.40234375 16.16796875 C11.54769531 16.15636719 10.69304688 16.14476563 9.8125 16.1328125 C9.8125 17.4528125 9.8125 18.7728125 9.8125 20.1328125 C10.53429443 20.12757568 11.25608887 20.12233887 11.99975586 20.11694336 C15.24982849 20.09623892 18.49988728 20.08317332 21.75 20.0703125 C22.88630859 20.06193359 24.02261719 20.05355469 25.19335938 20.04492188 C26.27294922 20.04169922 27.35253906 20.03847656 28.46484375 20.03515625 C29.96519165 20.02730103 29.96519165 20.02730103 31.49584961 20.01928711 C33.8125 20.1328125 33.8125 20.1328125 34.8125 21.1328125 C35.04779412 26.66222426 35.04779412 26.66222426 33.8125 29.1328125 C34.14183287 31.23514763 34.14183287 31.23514763 34.80859375 33.59765625 C35.03740234 34.48001953 35.26621094 35.36238281 35.50195312 36.27148438 C35.87223633 37.6569043 35.87223633 37.6569043 36.25 39.0703125 C36.73103309 40.89109294 37.20903171 42.71267851 37.68359375 44.53515625 C38.00734985 45.74933228 38.00734985 45.74933228 38.33764648 46.98803711 C38.8125 49.1328125 38.8125 49.1328125 38.8125 52.1328125 C40.1325 52.7928125 41.4525 53.4528125 42.8125 54.1328125 C42.8125 55.7828125 42.8125 57.4328125 42.8125 59.1328125 C42.1525 59.1328125 41.4925 59.1328125 40.8125 59.1328125 C40.3175 57.1528125 40.3175 57.1528125 39.8125 55.1328125 C38.4925 55.1328125 37.1725 55.1328125 35.8125 55.1328125 C35.4825 56.4528125 35.1525 57.7728125 34.8125 59.1328125 C34.1525 59.1328125 33.4925 59.1328125 32.8125 59.1328125 C32.6875 56.7578125 32.6875 56.7578125 32.8125 54.1328125 C33.4725 53.4728125 34.1325 52.8128125 34.8125 52.1328125 C34.71847693 50.14709264 34.71847693 50.14709264 34.125 47.8828125 C33.82916016 46.56410156 33.82916016 46.56410156 33.52734375 45.21875 C33.29144531 44.20039062 33.05554688 43.18203125 32.8125 42.1328125 C32.26798746 39.591754 31.72637655 37.05007218 31.1875 34.5078125 C30.72984588 32.38266612 30.27175112 30.25761434 29.8125 28.1328125 C29.1525 28.1328125 28.4925 28.1328125 27.8125 28.1328125 C27.72685791 28.97577881 27.64121582 29.81874512 27.55297852 30.68725586 C27.23407272 33.80546981 26.91123511 36.9232439 26.58569336 40.04077148 C26.44543399 41.3918446 26.30675733 42.74308298 26.16967773 44.09448242 C25.97272206 46.03346482 25.7696585 47.97182377 25.56640625 49.91015625 C25.38573608 51.66187134 25.38573608 51.66187134 25.20141602 53.44897461 C24.8125 56.1328125 24.8125 56.1328125 23.8125 57.1328125 C20.1433423 57.27591537 16.48534559 57.17502912 12.8125 57.1328125 C12.8125 60.7628125 12.8125 64.3928125 12.8125 68.1328125 C9.5125 68.1328125 6.2125 68.1328125 2.8125 68.1328125 C2.8125 64.5028125 2.8125 60.8728125 2.8125 57.1328125 C0.1209375 57.16375 0.1209375 57.16375 -2.625 57.1953125 C-4.47916122 57.2166247 -6.33462498 57.20507752 -8.1875 57.1328125 C-10.01912381 55.30118869 -9.68618881 52.38465582 -9.94140625 49.91015625 C-10.13959961 48.02006836 -10.13959961 48.02006836 -10.34179688 46.09179688 C-10.4779591 44.75131168 -10.61402556 43.41081676 -10.75 42.0703125 C-10.88957106 40.72586957 -11.02953986 39.38146787 -11.16992188 38.03710938 C-11.51304138 34.7360631 -11.85204667 31.43464519 -12.1875 28.1328125 C-12.8475 28.1328125 -13.5075 28.1328125 -14.1875 28.1328125 C-14.83533124 31.00737531 -15.48082518 33.88243009 -16.125 36.7578125 C-16.30740234 37.56605469 -16.48980469 38.37429687 -16.67773438 39.20703125 C-17.19332707 41.51313677 -17.69308547 43.82208603 -18.1875 46.1328125 C-18.43628906 47.27492187 -18.68507813 48.41703125 -18.94140625 49.59375 C-19.02261719 50.43164062 -19.10382812 51.26953125 -19.1875 52.1328125 C-18.5275 52.7928125 -17.8675 53.4528125 -17.1875 54.1328125 C-17.0625 56.7578125 -17.0625 56.7578125 -17.1875 59.1328125 C-17.8475 59.1328125 -18.5075 59.1328125 -19.1875 59.1328125 C-19.5175 57.8128125 -19.8475 56.4928125 -20.1875 55.1328125 C-21.5075 55.1328125 -22.8275 55.1328125 -24.1875 55.1328125 C-24.5175 56.4528125 -24.8475 57.7728125 -25.1875 59.1328125 C-25.8475 59.1328125 -26.5075 59.1328125 -27.1875 59.1328125 C-27.1875 57.4828125 -27.1875 55.8328125 -27.1875 54.1328125 C-26.54941406 53.91367188 -25.91132813 53.69453125 -25.25390625 53.46875 C-22.95521141 52.29881809 -22.95521141 52.29881809 -22.46484375 49.734375 C-22.35269531 48.75210938 -22.24054687 47.76984375 -22.125 46.7578125 C-21.38120606 41.1658344 -20.16391106 35.87126239 -18.67578125 30.43359375 C-18.51464844 29.67433594 -18.35351562 28.91507813 -18.1875 28.1328125 C-18.5175 27.8028125 -18.8475 27.4728125 -19.1875 27.1328125 C-19.3125 24.1328125 -19.3125 24.1328125 -19.1875 21.1328125 C-18.1875 20.1328125 -18.1875 20.1328125 -15.87084961 20.01928711 C-14.87061768 20.02452393 -13.87038574 20.02976074 -12.83984375 20.03515625 C-11.76025391 20.03837891 -10.68066406 20.04160156 -9.56835938 20.04492188 C-7.86389648 20.05749023 -7.86389648 20.05749023 -6.125 20.0703125 C-4.41473633 20.07708008 -4.41473633 20.07708008 -2.66992188 20.08398438 C0.15760351 20.09581503 2.9850264 20.1122984 5.8125 20.1328125 C5.8125 18.8128125 5.8125 17.4928125 5.8125 16.1328125 C4.53052734 16.15021484 4.53052734 16.15021484 3.22265625 16.16796875 C2.11792969 16.17699219 1.01320313 16.18601562 -0.125 16.1953125 C-1.22714844 16.20691406 -2.32929687 16.21851562 -3.46484375 16.23046875 C-6.1875 16.1328125 -6.1875 16.1328125 -7.1875 15.1328125 C-7.28659302 12.80121195 -7.31720504 10.46651308 -7.3125 8.1328125 C-7.31636719 6.2146875 -7.31636719 6.2146875 -7.3203125 4.2578125 C-7.09078148 -1.14291744 -4.86241162 0.0047221 0 0 Z M-5.1875 5.1328125 C-5.72130921 9.23092503 -5.72130921 9.23092503 -3.94921875 12.79541016 C-1.70590896 14.49841058 -0.42226832 14.51946376 2.375 14.53125 C3.25414062 14.53511719 4.13328125 14.53898437 5.0390625 14.54296875 C6.41191406 14.52556641 6.41191406 14.52556641 7.8125 14.5078125 C8.72773437 14.51941406 9.64296875 14.53101563 10.5859375 14.54296875 C11.46507813 14.53910156 12.34421875 14.53523438 13.25 14.53125 C14.05308594 14.52786621 14.85617188 14.52448242 15.68359375 14.52099609 C18.3305087 14.03835908 19.21891186 13.2724685 20.8125 11.1328125 C21.34630921 7.03469997 21.34630921 7.03469997 19.57421875 3.47021484 C17.33090896 1.76721442 16.04726832 1.74616124 13.25 1.734375 C12.37085937 1.73050781 11.49171875 1.72664063 10.5859375 1.72265625 C9.21308594 1.74005859 9.21308594 1.74005859 7.8125 1.7578125 C6.89726563 1.74621094 5.98203125 1.73460938 5.0390625 1.72265625 C3.72035156 1.72845703 3.72035156 1.72845703 2.375 1.734375 C1.57191406 1.73775879 0.76882812 1.74114258 -0.05859375 1.74462891 C-2.7055087 2.22726592 -3.59391186 2.9931565 -5.1875 5.1328125 Z M6.8125 16.1328125 C6.8125 17.4528125 6.8125 18.7728125 6.8125 20.1328125 C7.4725 20.1328125 8.1325 20.1328125 8.8125 20.1328125 C8.8125 18.8128125 8.8125 17.4928125 8.8125 16.1328125 C8.1525 16.1328125 7.4925 16.1328125 6.8125 16.1328125 Z M-9.1875 22.1328125 C-8.43374195 34.9268909 -8.43374195 34.9268909 -7.125 47.6328125 C-6.815625 50.1078125 -6.50625 52.5828125 -6.1875 55.1328125 C3.0525 55.1328125 12.2925 55.1328125 21.8125 55.1328125 C22.3075 50.9871875 22.8025 46.8415625 23.3125 42.5703125 C23.46912109 41.27665771 23.62574219 39.98300293 23.78710938 38.65014648 C23.90892578 37.61188721 24.03074219 36.57362793 24.15625 35.50390625 C24.28193359 34.45130615 24.40761719 33.39870605 24.53710938 32.31420898 C24.82989868 28.93181759 24.8125 25.52785258 24.8125 22.1328125 C13.5925 22.1328125 2.3725 22.1328125 -9.1875 22.1328125 Z M-16.1875 23.1328125 C-16.1875 23.7928125 -16.1875 24.4528125 -16.1875 25.1328125 C-15.5275 25.1328125 -14.8675 25.1328125 -14.1875 25.1328125 C-14.1875 24.4728125 -14.1875 23.8128125 -14.1875 23.1328125 C-14.8475 23.1328125 -15.5075 23.1328125 -16.1875 23.1328125 Z M29.8125 23.1328125 C29.8125 23.7928125 29.8125 24.4528125 29.8125 25.1328125 C30.4725 25.1328125 31.1325 25.1328125 31.8125 25.1328125 C31.8125 24.4728125 31.8125 23.8128125 31.8125 23.1328125 C31.1525 23.1328125 30.4925 23.1328125 29.8125 23.1328125 Z M4.8125 57.1328125 C4.8125 60.1028125 4.8125 63.0728125 4.8125 66.1328125 C6.7925 66.1328125 8.7725 66.1328125 10.8125 66.1328125 C10.8125 63.1628125 10.8125 60.1928125 10.8125 57.1328125 C8.8325 57.1328125 6.8525 57.1328125 4.8125 57.1328125 Z " fill="#000000" transform="translate(42.1875,15.8671875)"/>
<path d="M0 0 C0.804375 -0.00128906 1.60875 -0.00257812 2.4375 -0.00390625 C3.283125 -0.00003906 4.12875 0.00382812 5 0.0078125 C6.2684375 0.00201172 6.2684375 0.00201172 7.5625 -0.00390625 C8.366875 -0.00261719 9.17125 -0.00132813 10 0 C10.7425 0.00112793 11.485 0.00225586 12.25 0.00341797 C14 0.1328125 14 0.1328125 15 1.1328125 C15.125 4.1328125 15.125 4.1328125 15 7.1328125 C13.4779041 8.6549084 12.11789918 8.26240771 10 8.265625 C9.195625 8.26691406 8.39125 8.26820312 7.5625 8.26953125 C6.716875 8.26566406 5.87125 8.26179688 5 8.2578125 C4.154375 8.26167969 3.30875 8.26554687 2.4375 8.26953125 C1.633125 8.26824219 0.82875 8.26695313 0 8.265625 C-0.7425 8.26449707 -1.485 8.26336914 -2.25 8.26220703 C-4 8.1328125 -4 8.1328125 -5 7.1328125 C-5.125 4.1328125 -5.125 4.1328125 -5 1.1328125 C-3.4779041 -0.3892834 -2.11789918 0.00321729 0 0 Z M-1 1.1328125 C-0.01 1.4628125 0.98 1.7928125 2 2.1328125 C2 3.4528125 2 4.7728125 2 6.1328125 C1.01 6.4628125 0.02 6.7928125 -1 7.1328125 C2.96 7.1328125 6.92 7.1328125 11 7.1328125 C10.01 6.8028125 9.02 6.4728125 8 6.1328125 C8 4.8128125 8 3.4928125 8 2.1328125 C8.99 1.8028125 9.98 1.4728125 11 1.1328125 C7.04 1.1328125 3.08 1.1328125 -1 1.1328125 Z M-3 2.1328125 C-2 6.1328125 -2 6.1328125 -2 6.1328125 Z M12 2.1328125 C13 6.1328125 13 6.1328125 13 6.1328125 Z " fill="#000000" transform="translate(45,19.8671875)"/>
<path d="M0 0 C6.6 0 13.2 0 20 0 C20 4.29 20 8.58 20 13 C13.4 13 6.8 13 0 13 C0 8.71 0 4.42 0 0 Z M1 2 C0.9020943 3.49738124 0.87025136 4.99942892 0.875 6.5 C0.87242188 7.3146875 0.86984375 8.129375 0.8671875 8.96875 C0.7754822 10.99530377 0.7754822 10.99530377 2 12 C4.6773138 12.09981214 7.32304175 12.13879875 10 12.125 C11.12535156 12.13080078 11.12535156 12.13080078 12.2734375 12.13671875 C15.93606117 12.47675541 15.93606117 12.47675541 19 11 C19.0979057 9.50261876 19.12974864 8.00057108 19.125 6.5 C19.12757812 5.6853125 19.13015625 4.870625 19.1328125 4.03125 C19.2245178 2.00469623 19.2245178 2.00469623 18 1 C15.3226862 0.90018786 12.67695825 0.86120125 10 0.875 C9.24976563 0.87113281 8.49953125 0.86726563 7.7265625 0.86328125 C4.06393883 0.52324459 4.06393883 0.52324459 1 2 Z " fill="#000000" transform="translate(40,45)"/>
<path d="M0 0 C5.94 0 11.88 0 18 0 C18 0.33 18 0.66 18 1 C12.06 1 6.12 1 0 1 C0 0.67 0 0.34 0 0 Z " fill="#000000" transform="translate(38,67)"/>
<path d="M0 0 C4 1 4 1 4 1 Z " fill="#000000" transform="translate(58,67)"/>
</svg>
